<?xml version="1.0"?>
<svg xmlns="http://www.w3.org/2000/svg" viewBox="0 0 512 512" width="512" height="512"><g id="Fruit_Analysis" data-name="Fruit Analysis"><g id="Outline"><path d="M488,16H400a8,8,0,0,0,0,16h88a8.009,8.009,0,0,1,8,8V64H304V40a8.009,8.009,0,0,1,8-8h24a8,8,0,0,0,0-16H312a24.028,24.028,0,0,0-24,24V392a24.028,24.028,0,0,0,24,24H488a24.028,24.028,0,0,0,24-24V40A24.028,24.028,0,0,0,488,16Zm8,376a8.009,8.009,0,0,1-8,8H312a8.009,8.009,0,0,1-8-8V352H496Zm0-56H304V80H496Z"/><circle cx="368" cy="24" r="8"/><circle cx="128" cy="24" r="8"/><path d="M384,384h32a8,8,0,0,0,0-16H384a8,8,0,0,0,0,16Z"/><path d="M266.69,64.466l-104-37.143a8,8,0,0,0-5.38,15.069C267.174,81.448,261.381,80,264,80,272.953,80,275.087,67.465,266.69,64.466Z"/><circle cx="128" cy="488" r="8"/><path d="M261.31,432.466l-104,37.142a8,8,0,0,0,5.38,15.069l104-37.143a8,8,0,1,0-5.38-15.068Z"/><path d="M224,280c0-52.328-61.414-81.874-104.539-52.231a124.389,124.389,0,0,0-6.173-26.467c15.012-.684,44.082-4.684,63.707-24.308,26.889-26.89,24.444-71.52,24.327-73.407a8,8,0,0,0-7.488-7.488c-1.886-.122-46.521-2.562-73.407,24.327-14.6,14.594-20.547,34.413-22.921,49.789-11.124-16.365-27.942-33.806-53.39-49.075a8,8,0,0,0-8.232,13.72c35.349,21.209,61.521,52.3,67.312,92.026C59.779,198.575,0,228.523,0,280c0,28.419,9.965,64.011,26.007,92.885C45.658,408.258,77.439,437.99,112,417.566A50.574,50.574,0,0,0,136,424C191.586,424,224,336.478,224,280ZM185.31,112.111c-2.024,46.224-25.277,71.11-73.217,73.2C114.056,138.476,138.081,114.176,185.31,112.111ZM136,408c-6.488,0-15.2-2.864-18.285-6.01a8,8,0,0,0-11.43,0C103.2,405.136,94.488,408,88,408c-34.129,0-72-75.543-72-128,0-43.966,57.944-66.328,89.963-29.383a8,8,0,0,0,12.225-.166C147.518,214.655,208,234.417,208,280,208,327.839,180.027,408,136,408Z"/><path d="M328,304h32a8,8,0,0,0,8-8V232a8,8,0,0,0-8-8H328a8,8,0,0,0-8,8v64A8,8,0,0,0,328,304Zm8-64h16v48H336Z"/><path d="M392,304h32a8,8,0,0,0,8-8V184a8,8,0,0,0-8-8H392a8,8,0,0,0-8,8V296A8,8,0,0,0,392,304Zm8-112h16v96H400Z"/><path d="M456,304h16a8,8,0,0,0,0-16H456a8,8,0,0,0,0,16Z"/><path d="M456,272h16a8,8,0,0,0,0-16H456a8,8,0,0,0,0,16Z"/><path d="M456,240h16a8,8,0,0,0,0-16H456a8,8,0,0,0,0,16Z"/><path d="M456,208h16a8,8,0,0,0,0-16H456a8,8,0,0,0,0,16Z"/><path d="M456,176h16a8,8,0,0,0,0-16H456a8,8,0,0,0,0,16Z"/><circle cx="328" cy="200" r="8"/><circle cx="360" cy="168" r="8"/><circle cx="392" cy="136" r="8"/><circle cx="424" cy="136" r="8"/><circle cx="456" cy="104" r="8"/></g></g></svg>
